Coordinates
version=1
nRows=42
nColumns=38
inDegrees=no

Units are S.I. units (second, meters, Newtons, ...)
If the header above contains a line with 'inDegrees', this indicates whether rotational values are in degrees (yes) or radians (no).

endheader
time	pelvis_tilt	pelvis_list	pelvis_rotation	pelvis_tx	pelvis_ty	pelvis_tz	hip_flexion_r	hip_adduction_r	hip_rotation_r	knee_angle_r	ankle_angle_r	subtalar_angle_r	mtp_angle_r	hip_flexion_l	hip_adduction_l	hip_rotation_l	knee_angle_l	ankle_angle_l	subtalar_angle_l	mtp_angle_l	lumbar_extension	lumbar_bending	lumbar_rotation	arm_flex_r	arm_add_r	arm_rot_r	elbow_flex_r	pro_sup_r	wrist_flex_r	wrist_dev_r	arm_flex_l	arm_add_l	arm_rot_l	elbow_flex_l	pro_sup_l	wrist_flex_l	wrist_dev_l
0	-1.07315	1.32448	-0.583741	0.799825	1.63078	0.943808	0.264926	0.196237	-0.364691	0.400217	0.081227	0	0	-0.0192015	-0.244807	-0.0406965	1.26877	0.523599	0	0	-0.249132	0.316713	0.0631797	0.288172	-0.493305	0.0685795	1.27743	0.956532	0	0	0.207499	-0.244985	-0.0807523	1.24016	0.936221	0	0
0.01	-1.01466	1.32744	-0.648378	0.798435	1.61959	0.947063	0.244046	0.19195	-0.333593	0.404281	0.0719834	0	0	0.00274589	-0.232239	-0.0311649	1.30174	0.523599	0	0	-0.265336	0.301363	0.071485	0.286655	-0.490733	0.0636053	1.27868	0.953089	0	0	0.209334	-0.247125	-0.0785262	1.24329	0.935409	0	0
0.02	-0.946742	1.32804	-0.720947	0.797279	1.60774	0.950667	0.220594	0.185595	-0.307403	0.410985	0.0650109	0	0	0.0195333	-0.219948	-0.0240033	1.32436	0.523599	0	0	-0.281214	0.286289	0.0770728	0.285149	-0.488066	0.0604138	1.27752	0.95429	0	0	0.209048	-0.247619	-0.0796858	1.24559	0.937769	0	0
0.03	-0.875277	1.32657	-0.795776	0.796347	1.5957	0.954448	0.195477	0.17765	-0.285609	0.418241	0.0607097	0	0	0.0333733	-0.20797	-0.0170404	1.33848	0.523599	0	0	-0.296826	0.271809	0.0803428	0.284497	-0.485751	0.0592442	1.27445	0.959265	0	0	0.207888	-0.246688	-0.0836656	1.24692	0.941762	0	0
0.04	-0.805278	1.32403	-0.868334	0.795527	1.5836	0.958147	0.16992	0.168973	-0.26632	0.424782	0.0601679	0	0	0.0465965	-0.196291	-0.0104319	1.34593	0.523599	0	0	-0.31115	0.257794	0.0821551	0.283911	-0.483799	0.0589211	1.27061	0.965545	0	0	0.206256	-0.245363	-0.088155	1.24731	0.945558	0	0
0.05	-0.73633	1.32053	-0.93897	0.794766	1.57152	0.961707	0.143139	0.160025	-0.249128	0.428658	0.0616344	0	0	0.0593311	-0.185047	-0.00425568	1.34762	0.523599	0	0	-0.324445	0.244023	0.0827628	0.283343	-0.48184	0.0599371	1.26645	0.967049	0	0	0.204718	-0.24463	-0.0915422	1.24647	0.947737	0	0
0.06	-0.66996	1.31613	-1.00605	0.794088	1.5595	0.965073	0.115056	0.150809	-0.235387	0.429154	0.0650445	0	0	0.0722013	-0.174311	0.0016172	1.34447	0.523599	0	0	-0.336808	0.230649	0.0830236	0.282026	-0.480039	0.0597767	1.26313	0.967612	0	0	0.204007	-0.244792	-0.0923299	1.24461	0.948195	0	0
0.07	-0.60675	1.31129	-1.06968	0.793432	1.54752	0.968208	0.0861908	0.140945	-0.225218	0.426584	0.070893	0	0	0.0853201	-0.164079	0.00635012	1.337	0.523599	0	0	-0.348262	0.217276	0.0839701	0.279361	-0.47832	0.0571151	1.26141	0.969978	0	0	0.204359	-0.245946	-0.089769	1.2423	0.948166	0	0
0.08	-0.545719	1.30643	-1.13185	0.792698	1.53562	0.971122	0.05759	0.129773	-0.218098	0.422899	0.0786933	0	0	0.0981807	-0.154413	0.00871098	1.32513	0.523599	0	0	-0.358952	0.203152	0.0860835	0.275813	-0.476484	0.0526316	1.26088	0.973089	0	0	0.205452	-0.24806	-0.0844149	1.24	0.946763	0	0
0.09	-0.489372	1.30172	-1.19079	0.791868	1.52383	0.97381	0.0305854	0.117647	-0.213434	0.420069	0.0885679	0	0	0.110969	-0.146068	0.00808866	1.309	0.523599	0	0	-0.368787	0.188859	0.0893115	0.27261	-0.474829	0.0483434	1.26045	0.976345	0	0	0.206554	-0.250218	-0.0786754	1.23811	0.943318	0	0
0.1	-0.438827	1.29727	-1.24549	0.790982	1.51215	0.976256	0.00568998	0.104955	-0.209388	0.418719	0.0997173	0	0	0.123633	-0.139419	0.00440839	1.28873	0.523599	0	0	-0.377831	0.174969	0.0928426	0.271084	-0.473488	0.0462476	1.26019	0.978324	0	0	0.206636	-0.251785	-0.0756777	1.23693	0.940212	0	0
0.11	-0.394185	1.29358	-1.29586	0.79007	1.50056	0.978405	-0.0162505	0.0920786	-0.20493	0.419135	0.111421	0	0	0.136411	-0.134368	-0.0020017	1.26438	0.523599	0	0	-0.38556	0.161525	0.0965514	0.271279	-0.47256	0.0467495	1.25978	0.979203	0	0	0.205708	-0.25253	-0.0756316	1.23606	0.939103	0	0
0.12	-0.355969	1.29042	-1.34128	0.789094	1.48905	0.980269	-0.0358509	0.0798354	-0.199611	0.420552	0.122986	0	0	0.148825	-0.131405	-0.0108442	1.23591	0.523599	0	0	-0.392106	0.148931	0.100321	0.27335	-0.471496	0.0492759	1.25847	0.980099	0	0	0.203434	-0.253119	-0.0779873	1.23623	0.937816	0	0
0.13	-0.323509	1.28776	-1.3816	0.788097	1.47757	0.98185	-0.0536222	0.0684454	-0.193496	0.422735	0.134516	0	0	0.160607	-0.130297	-0.021125	1.2031	0.523599	0	0	-0.397417	0.137445	0.103879	0.276576	-0.47014	0.0527987	1.25656	0.980392	0	0	0.20015	-0.254744	-0.0803786	1.2374	0.935181	0	0
0.14	-0.295485	1.28547	-1.4169	0.787221	1.46608	0.983164	-0.0703004	0.0579198	-0.187777	0.425021	0.146163	0	0	0.171607	-0.130205	-0.0314147	1.16593	0.523599	0	0	-0.401724	0.127293	0.107073	0.27946	-0.468978	0.0561171	1.25575	0.979454	0	0	0.197132	-0.257371	-0.0806794	1.23839	0.931762	0	0
0.15	-0.271358	1.28399	-1.4473	0.786477	1.45458	0.984168	-0.0858939	0.0486152	-0.181555	0.426522	0.157732	0	0	0.182356	-0.130662	-0.0410394	1.12475	0.523599	0	0	-0.404496	0.118361	0.10969	0.281919	-0.467815	0.0588868	1.25595	0.977163	0	0	0.194799	-0.260796	-0.0787431	1.23837	0.928973	0	0
0.16	-0.250812	1.2835	-1.47298	0.785839	1.44307	0.984893	-0.100698	0.0407141	-0.174926	0.426384	0.168583	0	0	0.192824	-0.131418	-0.0491806	1.07966	0.523599	0	0	-0.405849	0.110517	0.111821	0.28379	-0.466502	0.0600848	1.25626	0.97781	0	0	0.193116	-0.264566	-0.0758805	1.23757	0.926469	0	0
0.17	-0.232568	1.28335	-1.49512	0.785305	1.43158	0.985434	-0.11573	0.0337541	-0.169206	0.424333	0.178839	0	0	0.201924	-0.132156	-0.0560512	1.03026	0.523599	0	0	-0.406669	0.103616	0.113087	0.285247	-0.464785	0.0603191	1.25692	0.97942	0	0	0.19185	-0.268507	-0.0727929	1.23664	0.92437	0	0
0.18	-0.216165	1.28343	-1.51408	0.784894	1.42006	0.985835	-0.131226	0.0273673	-0.165665	0.420748	0.188838	0	0	0.209303	-0.132515	-0.0613143	0.976495	0.523599	0	0	-0.407052	0.0975286	0.113226	0.286294	-0.46267	0.0602537	1.25741	0.981462	0	0	0.190878	-0.272192	-0.0699726	1.23558	0.91993	0	0
0.19	-0.202811	1.28407	-1.52881	0.784606	1.40847	0.986065	-0.146742	0.02181	-0.164537	0.415959	0.198474	0	0	0.215038	-0.132733	-0.0650297	0.917985	0.523599	0	0	-0.406487	0.0926479	0.112275	0.287221	-0.460286	0.0603794	1.25733	0.983643	0	0	0.189718	-0.27557	-0.0681484	1.2343	0.916427	0	0
0.2	-0.193339	1.28563	-1.53884	0.784424	1.3968	0.986083	-0.161586	0.0175262	-0.1649	0.410313	0.207459	0	0	0.219256	-0.133145	-0.0676444	0.854348	0.523599	0	0	-0.404682	0.089075	0.111204	0.287333	-0.457851	0.0597736	1.2577	0.984838	0	0	0.188692	-0.278547	-0.0661699	1.23285	0.912868	0	0
0.21	-0.18991	1.28785	-1.54221	0.784349	1.385	0.985905	-0.176586	0.0155154	-0.164393	0.402844	0.215031	0	0	0.221544	-0.134713	-0.0700738	0.785826	0.523599	0	0	-0.401858	0.0875025	0.110509	0.286439	-0.455731	0.0582387	1.25861	0.986315	0	0	0.187717	-0.280865	-0.0638492	1.23135	0.909	0	0
0.22	-0.192638	1.29105	-1.53899	0.784386	1.37297	0.985464	-0.191086	0.015282	-0.163932	0.394546	0.222577	0	0	0.222274	-0.13732	-0.0726348	0.712649	0.523599	0	0	-0.3974	0.0879995	0.110062	0.284746	-0.454156	0.0562017	1.25961	0.989565	0	0	0.185928	-0.28262	-0.0620767	1.22995	0.908766	0	0
0.23	-0.201762	1.29511	-1.5293	0.78451	1.36066	0.984731	-0.204883	0.0167641	-0.163144	0.386017	0.230086	0	0	0.221178	-0.140936	-0.0754513	0.63485	0.523599	0	0	-0.391143	0.0904688	0.10995	0.282561	-0.45345	0.0550609	1.25995	0.994541	0	0	0.18326	-0.282977	-0.0617878	1.22879	0.909591	0	0
0.24	-0.218764	1.30047	-1.51178	0.784725	1.34809	0.983633	-0.216973	0.0199786	-0.162532	0.378649	0.237374	0	0	0.219049	-0.145669	-0.0777356	0.553002	0.523599	0	0	-0.382792	0.0952478	0.110262	0.279726	-0.453822	0.0555759	1.26049	0.996302	0	0	0.179727	-0.281268	-0.0635196	1.22796	0.911907	0	0
0.25	-0.242993	1.30724	-1.48707	0.785068	1.33525	0.982155	-0.226902	0.0246434	-0.161996	0.372663	0.244271	0	0	0.216025	-0.150982	-0.0800902	0.467103	0.523599	0	0	-0.372109	0.102042	0.110844	0.27621	-0.455085	0.056798	1.26095	0.996217	0	0	0.175148	-0.277931	-0.0667666	1.22755	0.916472	0	0
0.26	-0.275497	1.31532	-1.4538	0.785578	1.32218	0.980306	-0.235077	0.0308518	-0.161321	0.366839	0.25146	0	0	0.212591	-0.156813	-0.0818696	0.378481	0.523599	0	0	-0.359105	0.110968	0.111605	0.272012	-0.457005	0.057884	1.26113	0.996489	0	0	0.169279	-0.273315	-0.0719053	1.22834	0.920623	0	0
0.27	-0.318141	1.32392	-1.41058	0.78616	1.30889	0.97812	-0.242098	0.0388795	-0.159817	0.361473	0.258774	0	0	0.208357	-0.163646	-0.083423	0.288325	0.523599	0	0	-0.344445	0.121928	0.113231	0.266733	-0.459719	0.0578981	1.26226	0.996708	0	0	0.162357	-0.268152	-0.0779351	1.23067	0.924944	0	0
0.28	-0.370697	1.33224	-1.35722	0.786856	1.29536	0.975652	-0.248974	0.0484056	-0.158589	0.355641	0.26545	0	0	0.203853	-0.171386	-0.0882993	0.199304	0.523599	0	0	-0.328664	0.134753	0.115061	0.260962	-0.463194	0.0576166	1.2638	0.996847	0	0	0.155061	-0.263405	-0.0825178	1.23378	0.930548	0	0
0.29	-0.429247	1.33974	-1.2972	0.787668	1.28173	0.972986	-0.256028	0.0582749	-0.158605	0.349932	0.27183	0	0	0.199603	-0.178805	-0.0950257	0.114753	0.523599	0	0	-0.312581	0.148265	0.116055	0.255825	-0.46697	0.0585418	1.26488	0.996042	0	0	0.148543	-0.259707	-0.0846922	1.23679	0.933902	0	0
0.3	-0.495008	1.34607	-1.23001	0.788605	1.26789	0.970138	-0.263655	0.0689508	-0.157422	0.343846	0.277718	0	0	0.195125	-0.185692	-0.107541	0.0335186	0.523599	0	0	-0.295934	0.16291	0.11666	0.251356	-0.472035	0.06154	1.26611	0.9948	0	0	0.142582	-0.256216	-0.0857431	1.23901	0.935391	0	0
0.31	-0.55292	1.35004	-1.17573	0.789465	1.25547	0.967413	-0.270976	0.0783748	-0.151273	0.339147	0.28057	0	0	0.206037	-0.186223	-0.105156	0	0.523295	0	0	-0.285168	0.174543	0.120079	0.251736	-0.476593	0.0673776	1.26678	0.993396	0	0	0.139117	-0.253782	-0.0870798	1.2397	0.936503	0	0
0.32	-0.494217	1.35711	-1.21465	0.790228	1.2492	0.967837	-0.273714	0.0684734	-0.154952	0.344929	0.281592	0	0	0.211548	-0.179083	0.130058	0	-0.204812	0	0	-0.295199	0.154815	0.102861	0.268598	-0.460528	0.0632229	1.24839	0.997532	0	0	0.159642	-0.259792	-0.088954	1.23253	0.944337	0	0
0.33	-0.529376	1.3672	-1.1473	0.793301	1.24244	0.965259	-0.264614	0.0785719	-0.161831	0.353074	0.285082	0	0	0.253869	-0.177896	0.29969	0	-0.651384	0	0	-0.293777	0.160511	0.0786087	0.284816	-0.457572	0.061437	1.23987	1.00073	0	0	0.18319	-0.260732	-0.0873395	1.23094	0.946822	0	0
0.34	-0.912866	1.40479	-0.700985	0.801439	1.23247	0.955296	-0.187433	0.122824	-0.20601	0.376066	0.297287	0	0	0.361748	-0.194746	0.60538	0	-0.698132	0	0	-0.206081	0.215574	0.0176763	0.288025	-0.46001	0.0536068	1.23112	1.01628	0	0	0.18467	-0.249835	-0.0924558	1.2228	0.962459	0	0
0.35	-1.00285	1.40497	-0.613998	0.801754	1.21903	0.952488	-0.187208	0.129429	-0.203418	0.382325	0.301436	0	0	0.374061	-0.20387	0.638536	0	-0.69765	0	0	-0.18872	0.222976	0.019563	0.284589	-0.455423	0.0512402	1.22724	1.01598	0	0	0.182065	-0.247923	-0.0958427	1.21837	0.962136	0	0
0.36	-1.02304	1.404	-0.59108	0.803142	1.20568	0.950549	-0.196838	0.128774	-0.204535	0.390211	0.305471	0	0	0.374508	-0.201254	0.642674	0	-0.698132	0	0	-0.183623	0.224944	0.0170459	0.285293	-0.453436	0.046855	1.22497	1.02039	0	0	0.185118	-0.246843	-0.0966097	1.21562	0.96389	0	0
0.37	-0.989006	1.40288	-0.612512	0.806061	1.19251	0.949099	-0.213482	0.123391	-0.210793	0.400332	0.309366	0	0	0.367744	-0.185779	0.612048	0	-0.698132	0	0	-0.188277	0.223796	0.00646204	0.29029	-0.456462	0.0431312	1.22621	1.02194	0	0	0.195115	-0.246068	-0.0931611	1.2149	0.964933	0	0
0.38	-0.859187	1.403	-0.771299	0.804103	1.17664	0.949889	-0.24441	0.095735	-0.206427	0.413518	0.31374	0	0	0.322543	-0.183207	0.647452	0	-0.698132	0	0	-0.201811	0.198636	0.0307661	0.283459	-0.443398	0.0428807	1.21997	1.02034	0	0	0.188435	-0.252375	-0.0964399	1.20966	0.968974	0	0
0.39	-0.751883	1.40396	-0.87717	0.805932	1.16284	0.949342	-0.264762	0.0740119	-0.205642	0.430068	0.317027	0	0	0.297687	-0.160261	0.632226	0	-0.698132	0	0	-0.216457	0.182217	0.0308733	0.288423	-0.445614	0.0402335	1.22039	1.02075	0	0	0.199336	-0.253186	-0.0911448	1.21128	0.971379	0	0
0.4	-0.623382	1.40435	-1.01678	0.806531	1.14772	0.949132	-0.285638	0.0448463	-0.202712	0.450129	0.320442	0	0	0.262408	-0.139696	0.631126	0	-0.698132	0	0	-0.227846	0.158095	0.0400936	0.28695	-0.441891	0.037113	1.21895	1.02259	0	0	0.201571	-0.255868	-0.0904563	1.21299	0.971068	0	0
0.41	-0.491737	1.40321	-1.16798	0.806317	1.13176	0.948944	-0.304158	0.0113754	-0.197303	0.474099	0.32337	0	0	0.22248	-0.119844	0.623715	0	-0.698132	0	0	-0.234444	0.130109	0.055879	0.281143	-0.435458	0.0334288	1.21638	1.02304	0	0	0.198388	-0.258914	-0.0928823	1.21438	0.97288	0	0
